<svg id="visual" viewBox="0 0 900 600" width="900" height="600" xmlns="http://www.w3.org/2000/svg" xmlns:xlink="http://www.w3.org/1999/xlink" version="1.1"><g stroke-width="1" stroke-linejoin="bevel"><path d="M434 285L471 362L517 298Z" fill="#0c6754" stroke="#0c6754"></path><path d="M583 366L566 302L517 298Z" fill="#0aa583" stroke="#0aa583"></path><path d="M517 298L506 188L434 285Z" fill="#001611" stroke="#001611"></path><path d="M471 362L583 366L517 298Z" fill="#0b3c31" stroke="#0b3c31"></path><path d="M566 302L506 188L517 298Z" fill="#0b856b" stroke="#0b856b"></path><path d="M434 285L415 434L471 362Z" fill="#0c5848" stroke="#0c5848"></path><path d="M471 362L517 461L583 366Z" fill="#001611" stroke="#001611"></path><path d="M415 434L517 461L471 362Z" fill="#0b765f" stroke="#0b765f"></path><path d="M506 188L384 188L434 285Z" fill="#0b765f" stroke="#0b765f"></path><path d="M434 285L287 372L415 434Z" fill="#0a2f27" stroke="#0a2f27"></path><path d="M384 188L315 272L434 285Z" fill="#08221c" stroke="#08221c"></path><path d="M684 290L609 210L566 302Z" fill="#001611" stroke="#001611"></path><path d="M566 302L609 210L506 188Z" fill="#0b856b" stroke="#0b856b"></path><path d="M334 463L377 475L415 434Z" fill="#0b3c31" stroke="#0b3c31"></path><path d="M415 434L377 475L517 461Z" fill="#0b856b" stroke="#0b856b"></path><path d="M315 272L287 372L434 285Z" fill="#0c5848" stroke="#0c5848"></path><path d="M287 372L334 463L415 434Z" fill="#0a2f27" stroke="#0a2f27"></path><path d="M698 361L684 290L583 366Z" fill="#0a9577" stroke="#0a9577"></path><path d="M583 366L684 290L566 302Z" fill="#0c4a3d" stroke="#0c4a3d"></path><path d="M684 290L673 223L609 210Z" fill="#0b856b" stroke="#0b856b"></path><path d="M609 210L564 92L506 188Z" fill="#0aa583" stroke="#0aa583"></path><path d="M289 93L301 161L384 188Z" fill="#0c5848" stroke="#0c5848"></path><path d="M384 188L301 161L315 272Z" fill="#0a2f27" stroke="#0a2f27"></path><path d="M315 272L204 372L287 372Z" fill="#0a2f27" stroke="#0a2f27"></path><path d="M627 494L698 361L583 366Z" fill="#0b3c31" stroke="#0b3c31"></path><path d="M684 290L774 203L673 223Z" fill="#0c4a3d" stroke="#0c4a3d"></path><path d="M519 600L627 494L517 461Z" fill="#0b3c31" stroke="#0b3c31"></path><path d="M517 461L627 494L583 366Z" fill="#08221c" stroke="#08221c"></path><path d="M688 99L564 92L609 210Z" fill="#0c5848" stroke="#0c5848"></path><path d="M506 188L428 66L384 188Z" fill="#0b765f" stroke="#0b765f"></path><path d="M535 60L428 66L506 188Z" fill="#001611" stroke="#001611"></path><path d="M564 92L535 60L506 188Z" fill="#08221c" stroke="#08221c"></path><path d="M168 278L204 372L315 272Z" fill="#0c4a3d" stroke="#0c4a3d"></path><path d="M287 372L169 492L334 463Z" fill="#0b3c31" stroke="#0b3c31"></path><path d="M674 600L688 500L627 494Z" fill="#0b765f" stroke="#0b765f"></path><path d="M627 494L688 500L698 361Z" fill="#08221c" stroke="#08221c"></path><path d="M428 66L289 93L384 188Z" fill="#0b3c31" stroke="#0b3c31"></path><path d="M173 178L168 278L315 272Z" fill="#0b3c31" stroke="#0b3c31"></path><path d="M266 600L425 600L377 475Z" fill="#0b765f" stroke="#0b765f"></path><path d="M377 475L425 600L517 461Z" fill="#0a9577" stroke="#0a9577"></path><path d="M266 600L377 475L334 463Z" fill="#08221c" stroke="#08221c"></path><path d="M425 600L519 600L517 461Z" fill="#0c6754" stroke="#0c6754"></path><path d="M815 422L768 308L698 361Z" fill="#0c5848" stroke="#0c5848"></path><path d="M698 361L768 308L684 290Z" fill="#0c4a3d" stroke="#0c4a3d"></path><path d="M673 223L688 99L609 210Z" fill="#0a9577" stroke="#0a9577"></path><path d="M564 92L634 0L535 60Z" fill="#0aa583" stroke="#0aa583"></path><path d="M774 203L688 99L673 223Z" fill="#0a2f27" stroke="#0a2f27"></path><path d="M173 178L315 272L301 161Z" fill="#0b856b" stroke="#0b856b"></path><path d="M634 0L461 0L535 60Z" fill="#0aa583" stroke="#0aa583"></path><path d="M535 60L461 0L428 66Z" fill="#08221c" stroke="#08221c"></path><path d="M428 66L280 0L289 93Z" fill="#0aa583" stroke="#0aa583"></path><path d="M461 0L428 0L428 66Z" fill="#0aa583" stroke="#0aa583"></path><path d="M768 308L774 203L684 290Z" fill="#0a2f27" stroke="#0a2f27"></path><path d="M519 600L625 600L627 494Z" fill="#0b3c31" stroke="#0b3c31"></path><path d="M197 85L173 178L301 161Z" fill="#08221c" stroke="#08221c"></path><path d="M625 600L674 600L627 494Z" fill="#0b856b" stroke="#0b856b"></path><path d="M688 500L815 422L698 361Z" fill="#0b3c31" stroke="#0b3c31"></path><path d="M67 370L169 492L204 372Z" fill="#0c6754" stroke="#0c6754"></path><path d="M204 372L169 492L287 372Z" fill="#0b856b" stroke="#0b856b"></path><path d="M169 492L266 600L334 463Z" fill="#0c6754" stroke="#0c6754"></path><path d="M680 0L634 0L688 99Z" fill="#0b765f" stroke="#0b765f"></path><path d="M688 99L634 0L564 92Z" fill="#08221c" stroke="#08221c"></path><path d="M223 0L197 85L289 93Z" fill="#0b3c31" stroke="#0b3c31"></path><path d="M289 93L197 85L301 161Z" fill="#0c6754" stroke="#0c6754"></path><path d="M776 515L815 422L688 500Z" fill="#0a9577" stroke="#0a9577"></path><path d="M768 308L900 275L774 203Z" fill="#0c5848" stroke="#0c5848"></path><path d="M674 600L776 515L688 500Z" fill="#001611" stroke="#001611"></path><path d="M428 0L280 0L428 66Z" fill="#08221c" stroke="#08221c"></path><path d="M769 73L680 0L688 99Z" fill="#08221c" stroke="#08221c"></path><path d="M900 175L769 73L774 203Z" fill="#0b856b" stroke="#0b856b"></path><path d="M774 203L769 73L688 99Z" fill="#0c4a3d" stroke="#0c4a3d"></path><path d="M280 0L223 0L289 93Z" fill="#0aa583" stroke="#0aa583"></path><path d="M77 175L69 277L168 278Z" fill="#0c5848" stroke="#0c5848"></path><path d="M168 278L67 370L204 372Z" fill="#08221c" stroke="#08221c"></path><path d="M77 175L168 278L173 178Z" fill="#08221c" stroke="#08221c"></path><path d="M77 175L173 178L127 74Z" fill="#0a9577" stroke="#0a9577"></path><path d="M169 492L181 600L266 600Z" fill="#0c6754" stroke="#0c6754"></path><path d="M100 600L181 600L169 492Z" fill="#0c4a3d" stroke="#0c4a3d"></path><path d="M69 277L67 370L168 278Z" fill="#0c6754" stroke="#0c6754"></path><path d="M127 74L173 178L197 85Z" fill="#001611" stroke="#001611"></path><path d="M223 0L127 74L197 85Z" fill="#0c5848" stroke="#0c5848"></path><path d="M67 370L95 503L169 492Z" fill="#0c6754" stroke="#0c6754"></path><path d="M900 518L900 417L815 422Z" fill="#0a9577" stroke="#0a9577"></path><path d="M674 600L792 600L776 515Z" fill="#0b3c31" stroke="#0b3c31"></path><path d="M900 417L900 275L815 422Z" fill="#0a2f27" stroke="#0a2f27"></path><path d="M815 422L900 275L768 308Z" fill="#0c4a3d" stroke="#0c4a3d"></path><path d="M900 83L780 0L769 73Z" fill="#0a2f27" stroke="#0a2f27"></path><path d="M769 73L780 0L680 0Z" fill="#08221c" stroke="#08221c"></path><path d="M900 518L815 422L776 515Z" fill="#0a9577" stroke="#0a9577"></path><path d="M900 275L900 175L774 203Z" fill="#0c4a3d" stroke="#0c4a3d"></path><path d="M0 600L100 600L95 503Z" fill="#0c4a3d" stroke="#0c4a3d"></path><path d="M95 503L100 600L169 492Z" fill="#0a9577" stroke="#0a9577"></path><path d="M792 600L900 518L776 515Z" fill="#0b765f" stroke="#0b765f"></path><path d="M0 194L69 277L77 175Z" fill="#0aa583" stroke="#0aa583"></path><path d="M0 194L0 267L69 277Z" fill="#0a9577" stroke="#0a9577"></path><path d="M69 277L0 267L67 370Z" fill="#0c4a3d" stroke="#0c4a3d"></path><path d="M67 370L0 422L95 503Z" fill="#0b856b" stroke="#0b856b"></path><path d="M0 267L0 422L67 370Z" fill="#0c6754" stroke="#0c6754"></path><path d="M900 175L900 83L769 73Z" fill="#0a9577" stroke="#0a9577"></path><path d="M0 90L0 194L77 175Z" fill="#0a9577" stroke="#0a9577"></path><path d="M0 422L0 474L95 503Z" fill="#0a9577" stroke="#0a9577"></path><path d="M223 0L79 0L127 74Z" fill="#0b765f" stroke="#0b765f"></path><path d="M127 74L0 90L77 175Z" fill="#0a2f27" stroke="#0a2f27"></path><path d="M792 600L900 600L900 518Z" fill="#0c4a3d" stroke="#0c4a3d"></path><path d="M79 0L0 90L127 74Z" fill="#08221c" stroke="#08221c"></path><path d="M900 83L900 0L780 0Z" fill="#0c6754" stroke="#0c6754"></path><path d="M0 474L0 600L95 503Z" fill="#0c5848" stroke="#0c5848"></path><path d="M79 0L0 0L0 90Z" fill="#0b3c31" stroke="#0b3c31"></path></g></svg>